<svg id="Capa_1" enable-background="new 0 0 512 512" height="512" viewBox="0 0 512 512" width="512" xmlns="http://www.w3.org/2000/svg"><g><path d="m69.475 95.879v185.081c0 4.142 3.358 7.5 7.5 7.5s7.5-3.358 7.5-7.5v-185.081c0-4.142-3.358-7.5-7.5-7.5s-7.5 3.358-7.5 7.5z"/><path d="m442.525 280.96v-185.081c0-4.142-3.358-7.5-7.5-7.5s-7.5 3.358-7.5 7.5v185.081c0 4.142 3.358 7.5 7.5 7.5s7.5-3.358 7.5-7.5z"/><path d="m370.915 280.96v-185.081c0-4.142-3.358-7.5-7.5-7.5s-7.5 3.358-7.5 7.5v185.081c0 4.142 3.358 7.5 7.5 7.5s7.5-3.358 7.5-7.5z"/><path d="m299.305 280.96v-185.081c0-4.142-3.358-7.5-7.5-7.5s-7.5 3.358-7.5 7.5v185.081c0 4.142 3.358 7.5 7.5 7.5s7.5-3.358 7.5-7.5z"/><path d="m227.695 280.96v-185.081c0-4.142-3.358-7.5-7.5-7.5s-7.5 3.358-7.5 7.5v185.081c0 4.142 3.358 7.5 7.5 7.5s7.5-3.358 7.5-7.5z"/><path d="m156.085 280.96v-185.081c0-4.142-3.358-7.5-7.5-7.5s-7.5 3.358-7.5 7.5v185.081c0 4.142 3.358 7.5 7.5 7.5s7.5-3.358 7.5-7.5z"/><path d="m483.836 311.478h-2.389c.063-.33.135-.658.187-.991 12.398-81 12.398-163.14 0-244.143-1.982-12.902-12.442-22.502-25.439-23.346-108.224-6.995-217.977-8.311-326.208-3.91-4.139.168-7.357 3.66-7.189 7.798.168 4.139 3.659 7.371 7.798 7.189 107.708-4.378 216.93-3.07 324.63 3.891 5.915.384 10.678 4.765 11.582 10.65 12.167 79.494 12.167 160.106.001 239.591-.175 1.134-.507 2.232-.974 3.27h-419.67c-.466-1.036-.798-2.131-.972-3.261-12.167-79.494-12.167-160.106 0-239.596.905-5.889 5.667-10.271 11.582-10.654 15.048-.974 29.835-1.823 43.948-2.524 4.137-.206 7.324-3.726 7.119-7.863-.206-4.137-3.726-7.317-7.863-7.119-14.188.705-29.049 1.559-44.174 2.537-12.995.843-23.456 10.443-25.438 23.35-12.398 81-12.398 163.14.001 244.148.051.33.122.655.185.982h-2.389c-15.53.001-28.164 12.635-28.164 28.165v13.208c0 15.53 12.634 28.164 28.164 28.164h14.174c-10.544 9.98-17.143 24.09-17.143 39.721 0 30.173 24.547 54.72 54.72 54.72 19.728 0 37.551-10.518 47.222-27.043 9.678 16.525 27.504 27.043 47.227 27.043 30.173 0 54.72-24.547 54.72-54.72 0-15.63-6.598-29.74-17.143-39.721h88.114c-10.544 9.98-17.143 24.09-17.143 39.721 0 30.173 24.547 54.72 54.72 54.72 19.727 0 37.549-10.517 47.221-27.041 9.679 16.522 27.503 27.038 47.224 27.038 8.877 0 17.684-2.17 25.469-6.276 3.664-1.933 5.067-6.469 3.135-10.133s-6.469-5.066-10.133-3.135c-5.636 2.973-12.023 4.544-18.471 4.544-13.335 0-25.477-6.619-32.759-17.216h32.759c12.407 0 22.5-10.093 22.5-22.5s-10.093-22.5-22.5-22.5h-32.764c7.259-10.569 19.351-17.181 32.641-17.221h.219c21.857.052 39.623 17.848 39.623 39.718 0 5.96-1.286 11.682-3.821 17.005-1.781 3.74-.194 8.215 3.546 9.996 1.041.496 2.139.731 3.22.731 2.803 0 5.491-1.578 6.776-4.277 3.503-7.354 5.279-15.245 5.279-23.455 0-15.629-6.597-29.737-17.139-39.718h14.175c15.53 0 28.164-12.634 28.164-28.164v-13.208c.004-15.531-12.63-28.165-28.16-28.165zm-403.92 148.977c-21.902 0-39.72-17.818-39.72-39.72 0-21.901 17.818-39.72 39.72-39.72 13.34 0 25.482 6.621 32.757 17.22h-32.754c-12.407 0-22.5 10.093-22.5 22.5s10.093 22.5 22.5 22.5h32.753c-7.275 10.6-19.417 17.22-32.756 17.22zm.003-32.22c-4.136 0-7.5-3.364-7.5-7.5s3.364-7.5 7.5-7.5h94.441c4.136 0 7.5 3.364 7.5 7.5s-3.364 7.5-7.5 7.5zm134.166-7.5c0 21.902-17.818 39.72-39.72 39.72-13.336 0-25.48-6.621-32.761-17.22h32.756c12.407 0 22.5-10.093 22.5-22.5s-10.093-22.5-22.5-22.5h-32.757c7.281-10.6 19.425-17.22 32.761-17.22 21.903 0 39.721 17.819 39.721 39.72zm-86.947-27.677c-2.628-4.49-5.858-8.532-9.565-12.044h19.133c-3.707 3.512-6.939 7.554-9.568 12.044zm210.497 67.397c-21.902 0-39.72-17.818-39.72-39.72 0-21.901 17.818-39.72 39.72-39.72 13.34 0 25.482 6.621 32.757 17.22h-32.753c-12.407 0-22.5 10.093-22.5 22.5s10.093 22.5 22.5 22.5h32.753c-7.276 10.6-19.418 17.22-32.757 17.22zm101.945-39.72c0 4.136-3.364 7.5-7.5 7.5h-94.441c-4.136 0-7.5-3.364-7.5-7.5s3.364-7.5 7.5-7.5h94.441c4.136 0 7.5 3.365 7.5 7.5zm-54.726-27.682c-2.627-4.487-5.857-8.528-9.561-12.039h19.126c-3.706 3.511-6.937 7.551-9.565 12.039zm112.146-40.203c0 7.259-5.905 13.164-13.164 13.164h-455.672c-7.259 0-13.164-5.905-13.164-13.164v-13.208c0-7.259 5.905-13.164 13.164-13.164h455.672c7.259 0 13.164 5.905 13.164 13.164z"/></g></svg>