<?xml version="1.0"?>
<svg xmlns="http://www.w3.org/2000/svg" id="Layer_1" data-name="Layer 1" viewBox="0 0 64 64" width="512" height="512"><path d="M33.56,20.751A19.455,19.455,0,0,1,21.636,32.1,21.48,21.48,0,0,0,7,52.47V62H9V52.47A19.48,19.48,0,0,1,22.274,33.994,21.451,21.451,0,0,0,35.421,21.482l7.51-19.116-1.862-.732Z"/><path d="M33.233,50.848A16.792,16.792,0,0,0,29,62h2a14.794,14.794,0,0,1,3.729-9.825l2.623-2.955A52.68,52.68,0,0,0,50.573,15.941L51,2.031l-2-.062L48.573,15.88A50.666,50.666,0,0,1,35.855,47.893Z"/><circle cx="19" cy="61" r="1"/><circle cx="19" cy="54" r="1"/><circle cx="20" cy="47" r="1"/><circle cx="26" cy="43" r="1"/><circle cx="32" cy="39" r="1"/><circle cx="36" cy="33" r="1"/><circle cx="40" cy="27" r="1"/><circle cx="42" cy="21" r="1"/><circle cx="44" cy="15" r="1"/><circle cx="46" cy="9" r="1"/><path d="M15,6a1,1,0,0,0-1,1v8H5a1,1,0,0,0-.707.293l-2,2a1,1,0,0,0,0,1.414l2,2A1,1,0,0,0,5,21h9v4.142A4,4,0,0,0,11,29v1a1,1,0,0,0,1,1h6a1,1,0,0,0,1-1V29a4,4,0,0,0-3-3.858V15h9a1,1,0,0,0,.707-.293l2-2a1,1,0,0,0,0-1.414l-2-2A1,1,0,0,0,25,9H16V7A1,1,0,0,0,15,6ZM5.414,19l-1-1,1-1H14v2ZM17,29H13a2,2,0,0,1,4,0Zm7.586-18,1,1-1,1H16V11Z"/><path d="M47,62V59h3a1,1,0,0,0,.832-1.555l-1.145-1.718a1,1,0,0,0,.208-1.174L48.867,52.5a1,1,0,0,0,.081-.814l-2-6a1,1,0,0,0-1.9,0l-2,6a1,1,0,0,0,.081.814l-1.028,2.055a1,1,0,0,0,.208,1.174l-1.145,1.718A1,1,0,0,0,42,59h3v3Zm-3.132-5,.964-1.445a1,1,0,0,0-.293-1.4l.856-1.711a1,1,0,0,0-.044-.973,1.2,1.2,0,0,0-.083-.115l.732-2.2.732,2.2a1.2,1.2,0,0,0-.083.115,1,1,0,0,0-.044.973l.856,1.711a1,1,0,0,0-.293,1.4L48.132,57Z"/><path d="M50.149,33.526a1,1,0,0,0,.164.2l-1.145,1.718A1,1,0,0,0,50,37h3v3h2V37h3a1,1,0,0,0,.832-1.555l-1.145-1.718a1,1,0,0,0,.208-1.174L56.867,30.5a1,1,0,0,0,.081-.814l-2-6a1,1,0,0,0-1.9,0l-2,6a1,1,0,0,0,.081.814l-1.028,2.055A1,1,0,0,0,50.149,33.526Zm2.733-1a1,1,0,0,0-.343-.37l.856-1.711a1,1,0,0,0-.044-.973,1.2,1.2,0,0,0-.083-.115l.732-2.2.732,2.2a1.2,1.2,0,0,0-.083.115,1,1,0,0,0-.044.973l.856,1.711a1,1,0,0,0-.293,1.4L56.132,35H51.868l.964-1.445A1,1,0,0,0,52.882,32.528Z"/><path d="M52.118,15.472A1,1,0,0,0,53,16h3v3h2V16h3a1,1,0,0,0,.832-1.555l-1.145-1.718a1,1,0,0,0,.208-1.174L59.867,9.5a1,1,0,0,0,.081-.814l-2-6a1,1,0,0,0-1.9,0l-2,6a1,1,0,0,0,.081.814l-1.028,2.055a1,1,0,0,0,.208,1.174l-1.145,1.718A1,1,0,0,0,52.118,15.472Zm3.764-3.944a1,1,0,0,0-.343-.37L56.4,9.447a1,1,0,0,0-.044-.973,1.2,1.2,0,0,0-.083-.115L57,6.162l.732,2.2a1.2,1.2,0,0,0-.083.115,1,1,0,0,0-.044.973l.856,1.711a1,1,0,0,0-.293,1.4L59.132,14H54.868l.964-1.445A1,1,0,0,0,55.882,11.528Z"/></svg>
