<svg width="13" height="16" viewBox="0 0 13 16" fill="none" xmlns="http://www.w3.org/2000/svg">
<path d="M12.95 2.86C12.95 2.49 12.85 2.21 12.65 2.02C12.45 1.83 12.16 1.74 11.78 1.75C11.66 1.76 11.58 1.79 11.54 1.84C11.5 1.88 11.48 1.96 11.48 2.08C11.5 2.46 11.5 2.84 11.48 3.22C11.46 3.53 11.365 3.775 11.195 3.955C11.025 4.135 10.78 4.24 10.46 4.27C10.15 4.29 9.835 4.29 9.515 4.27C9.195 4.24 8.945 4.13 8.765 3.94C8.585 3.75 8.49 3.49 8.48 3.16V2.8C8.47 2.48 8.47 2.24 8.48 2.08C8.49 1.96 8.47 1.875 8.42 1.825C8.38 1.775 8.3 1.75 8.18 1.75C7.06 1.76 5.935 1.76 4.805 1.75C4.685 1.75 4.605 1.78 4.565 1.84C4.525 1.89 4.51 1.97 4.52 2.08V3.22C4.51 3.51 4.425 3.745 4.265 3.925C4.105 4.105 3.885 4.21 3.605 4.24C3.275 4.28 2.925 4.285 2.555 4.255C2.235 4.245 1.99 4.15 1.82 3.97C1.65 3.79 1.555 3.535 1.535 3.205C1.515 2.825 1.515 2.445 1.535 2.065C1.545 1.945 1.525 1.865 1.475 1.825C1.425 1.785 1.34 1.76 1.22 1.75C0.84 1.74 0.55 1.835 0.35 2.035C0.15 2.225 0.05 2.515 0.05 2.905V14.095C0.05 14.495 0.14 14.785 0.32 14.965C0.51 15.155 0.805 15.25 1.205 15.25H11.795C12.205 15.25 12.5 15.155 12.68 14.965C12.86 14.785 12.95 14.495 12.95 14.095V2.86ZM1.52 5.515C1.52 5.415 1.54 5.345 1.58 5.305C1.63 5.265 1.705 5.245 1.805 5.245H4.265C4.435 5.245 4.52 5.325 4.52 5.485C4.51 6.155 4.51 6.83 4.52 7.51C4.52 7.61 4.495 7.675 4.445 7.705C4.395 7.735 4.32 7.75 4.22 7.75H1.79C1.69 7.75 1.62 7.73 1.58 7.69C1.54 7.65 1.52 7.58 1.52 7.48V5.515ZM4.52 13.48C4.52 13.59 4.495 13.665 4.445 13.705C4.405 13.755 4.335 13.78 4.235 13.78C3.445 13.76 2.65 13.76 1.85 13.78C1.73 13.78 1.645 13.755 1.595 13.705C1.545 13.655 1.52 13.575 1.52 13.465C1.53 13.175 1.53 12.745 1.52 12.175V11.53C1.52 11.43 1.54 11.36 1.58 11.32C1.62 11.28 1.69 11.26 1.79 11.26C1.97 11.27 2.24 11.27 2.6 11.26H3.41C3.77 11.27 4.04 11.27 4.22 11.26C4.33 11.26 4.405 11.28 4.445 11.32C4.495 11.36 4.52 11.435 4.52 11.545C4.51 12.185 4.51 12.83 4.52 13.48ZM4.175 10.765C4.005 10.755 3.745 10.755 3.395 10.765H2.63C2.29 10.755 2.035 10.755 1.865 10.765C1.745 10.775 1.655 10.755 1.595 10.705C1.535 10.655 1.51 10.57 1.52 10.45C1.54 9.81 1.54 9.175 1.52 8.545C1.52 8.425 1.545 8.345 1.595 8.305C1.645 8.265 1.73 8.245 1.85 8.245C2.63 8.255 3.415 8.255 4.205 8.245C4.335 8.235 4.42 8.26 4.46 8.32C4.5 8.37 4.52 8.46 4.52 8.59C4.51 9.2 4.51 9.815 4.52 10.435C4.53 10.565 4.505 10.655 4.445 10.705C4.395 10.755 4.305 10.775 4.175 10.765ZM5.3 5.245C6.1 5.245 6.895 5.245 7.685 5.245C7.795 5.235 7.87 5.255 7.91 5.305C7.96 5.345 7.985 5.42 7.985 5.53V6.175C7.975 6.745 7.975 7.175 7.985 7.465C7.985 7.575 7.96 7.65 7.91 7.69C7.87 7.73 7.795 7.75 7.685 7.75C7.505 7.74 7.235 7.74 6.875 7.75H6.065C5.715 7.74 5.455 7.74 5.285 7.75C5.185 7.75 5.115 7.73 5.075 7.69C5.035 7.65 5.015 7.58 5.015 7.48C5.035 6.82 5.035 6.16 5.015 5.5C5.015 5.4 5.035 5.335 5.075 5.305C5.125 5.265 5.2 5.245 5.3 5.245ZM5.015 8.545C5.015 8.435 5.035 8.36 5.075 8.32C5.115 8.27 5.19 8.245 5.3 8.245C6.1 8.265 6.9 8.265 7.7 8.245C7.81 8.245 7.885 8.27 7.925 8.32C7.965 8.36 7.985 8.435 7.985 8.545V10.48C7.985 10.59 7.96 10.67 7.91 10.72C7.87 10.76 7.8 10.775 7.7 10.765C7.52 10.755 7.25 10.755 6.89 10.765H6.095C5.765 10.755 5.515 10.755 5.345 10.765C5.225 10.775 5.14 10.76 5.09 10.72C5.04 10.68 5.015 10.595 5.015 10.465C5.035 9.835 5.035 9.195 5.015 8.545ZM7.985 13.435C7.995 13.565 7.97 13.655 7.91 13.705C7.86 13.755 7.775 13.78 7.655 13.78C6.885 13.77 6.11 13.77 5.33 13.78C5.21 13.78 5.125 13.755 5.075 13.705C5.025 13.665 5.005 13.585 5.015 13.465C5.035 12.835 5.035 12.205 5.015 11.575C5.015 11.455 5.035 11.37 5.075 11.32C5.125 11.27 5.21 11.25 5.33 11.26C5.5 11.27 5.76 11.27 6.11 11.26H6.89C7.22 11.27 7.47 11.27 7.64 11.26C7.77 11.25 7.86 11.27 7.91 11.32C7.97 11.37 7.995 11.46 7.985 11.59C7.975 12.2 7.975 12.815 7.985 13.435ZM8.48 5.53C8.48 5.42 8.5 5.345 8.54 5.305C8.59 5.255 8.665 5.235 8.765 5.245H11.165C11.285 5.235 11.37 5.255 11.42 5.305C11.47 5.345 11.495 5.425 11.495 5.545C11.485 6.185 11.485 6.83 11.495 7.48C11.495 7.58 11.47 7.65 11.42 7.69C11.38 7.73 11.31 7.75 11.21 7.75H9.575C9.245 7.74 8.995 7.74 8.825 7.75C8.695 7.76 8.6 7.74 8.54 7.69C8.49 7.64 8.47 7.55 8.48 7.42C8.5 6.79 8.5 6.16 8.48 5.53ZM11.48 13.51C11.49 13.69 11.4 13.78 11.21 13.78C10.39 13.76 9.565 13.76 8.735 13.78C8.565 13.78 8.48 13.695 8.48 13.525V11.5C8.48 11.4 8.505 11.335 8.555 11.305C8.605 11.275 8.68 11.26 8.78 11.26H10.4C10.76 11.27 11.03 11.27 11.21 11.26C11.31 11.26 11.38 11.28 11.42 11.32C11.47 11.36 11.49 11.43 11.48 11.53V13.51ZM11.135 10.765C10.965 10.755 10.705 10.755 10.355 10.765H9.56C9.2 10.755 8.93 10.755 8.75 10.765C8.65 10.765 8.58 10.745 8.54 10.705C8.5 10.665 8.48 10.595 8.48 10.495V9.835C8.49 9.255 8.49 8.82 8.48 8.53C8.48 8.42 8.5 8.345 8.54 8.305C8.59 8.265 8.67 8.245 8.78 8.245H11.165C11.285 8.245 11.37 8.27 11.42 8.32C11.47 8.36 11.495 8.44 11.495 8.56C11.475 9.19 11.475 9.815 11.495 10.435C11.495 10.575 11.465 10.67 11.405 10.72C11.355 10.76 11.265 10.775 11.135 10.765ZM3.08 3.745C3.33 3.735 3.54 3.64 3.71 3.46C3.89 3.27 3.99 3.045 4.01 2.785C4.02 2.665 4.02 2.485 4.01 2.245V1.735C4.02 1.505 4.02 1.335 4.01 1.225C3.99 0.964999 3.895 0.744999 3.725 0.564999C3.555 0.374999 3.34 0.269999 3.08 0.25C2.83 0.229999 2.605 0.299999 2.405 0.46C2.215 0.619999 2.1 0.829999 2.06 1.09C1.98 1.7 1.98 2.3 2.06 2.89C2.09 3.15 2.205 3.365 2.405 3.535C2.605 3.695 2.83 3.765 3.08 3.745ZM9.95 3.745C10.23 3.755 10.465 3.665 10.655 3.475C10.855 3.285 10.965 3.04 10.985 2.74C10.995 2.63 10.995 2.475 10.985 2.275V1.825C10.995 1.555 10.99 1.355 10.97 1.225C10.96 0.945 10.855 0.715 10.655 0.535C10.465 0.345 10.235 0.255 9.965 0.264999C9.695 0.264999 9.465 0.359999 9.275 0.549999C9.095 0.739999 9 0.974999 8.99 1.255C8.97 1.755 8.97 2.245 8.99 2.725C9 3.015 9.095 3.255 9.275 3.445C9.455 3.635 9.68 3.735 9.95 3.745Z" fill="#DC4DBC"/>
</svg>
