<svg width="70" height="70" viewBox="0 0 70 70" fill="none" xmlns="http://www.w3.org/2000/svg">
<path d="M55.5669 27.9103C57.0036 24.2851 59.2744 20.6962 62.3153 17.242C63.283 16.1429 63.4058 14.5738 62.6208 13.338C62.0162 12.3874 60.9994 11.8458 59.9227 11.8458C59.6194 11.8458 59.3107 11.8886 59.0063 11.9772C52.5612 13.8603 37.5275 20.5489 37.1238 41.9282C36.9678 50.1837 43.0059 57.276 50.8683 58.0749C55.2016 58.5086 59.5371 57.1008 62.75 54.1966C65.9672 51.2892 67.8129 47.1385 67.8129 42.8073C67.8129 35.5815 62.6838 29.2625 55.5669 27.9103ZM59.817 50.9506C57.7737 52.7974 55.2016 53.7811 52.4747 53.7811C52.0891 53.7811 51.7004 53.7619 51.3105 53.7213C45.6954 53.152 41.3856 48.008 41.4988 42.0116C41.7776 27.2182 49.7873 20.5585 56.4203 17.5795C54.3215 20.4185 52.6723 23.3388 51.4995 26.2985C51.0424 27.451 51.1182 28.7392 51.7068 29.8329C52.3231 30.9801 53.4222 31.794 54.7199 32.0663C59.7721 33.1227 63.4379 37.6408 63.4379 42.8073C63.4379 45.9027 62.1177 48.871 59.817 50.9506Z" fill="url(#paint0_linear_263_60)"/>
<path d="M27.6859 13.3381C27.0814 12.3874 26.0645 11.8459 24.9879 11.8459C24.6845 11.8459 24.3769 11.8886 24.0714 11.9773C17.6264 13.8604 2.59376 20.5489 2.19002 41.9283L2.19002 41.9294C2.03622 50.1849 8.07319 57.2761 15.9367 58.075C20.2754 58.5161 24.6033 57.102 27.8162 54.1967C31.0334 51.2893 32.8791 47.1386 32.8791 42.8074C32.8791 35.5816 27.75 29.2626 20.6342 27.9104C22.0719 24.282 24.3427 20.6931 27.3826 17.241C28.3503 16.1408 28.4721 14.5728 27.6859 13.3381ZM16.5669 26.2965C16.1097 27.449 16.1845 28.7371 16.772 29.8308C17.3893 30.9791 18.4874 31.793 19.7862 32.0664C24.8384 33.1228 28.5041 37.6409 28.5041 42.8074C28.5041 45.9038 27.1839 48.8711 24.8832 50.9507C22.841 52.7975 20.269 53.7812 17.541 53.7812C17.1565 53.7812 16.7677 53.762 16.3767 53.7214C10.7627 53.1521 6.45181 48.008 6.56504 42.0117C6.84274 27.2172 14.8536 20.5586 21.4866 17.5796C19.3888 20.4165 17.7418 23.3367 16.5669 26.2965Z" fill="url(#paint1_linear_263_60)"/>
<defs>
<linearGradient id="paint0_linear_263_60" x1="52.4668" y1="58.1521" x2="52.4668" y2="11.8458" gradientUnits="userSpaceOnUse">
<stop stop-color="#280658"/>
<stop offset="1" stop-color="#7123B9"/>
</linearGradient>
<linearGradient id="paint1_linear_263_60" x1="17.5331" y1="58.1543" x2="17.5331" y2="11.8459" gradientUnits="userSpaceOnUse">
<stop stop-color="#280658"/>
<stop offset="1" stop-color="#7123B9"/>
</linearGradient>
</defs>
</svg>
